<?xml version="1.0" standalone="no"?>
<!DOCTYPE svg PUBLIC "-//W3C//DTD SVG 20010904//EN"
  "http://www.w3.org/TR/2001/REC-SVG-20010904/DTD/svg10.dtd">
<svg version="1.0" xmlns="http://www.w3.org/2000/svg"
  width="77.000000pt" height="80.000000pt" viewBox="0 0 77.000000 80.000000"
  preserveAspectRatio="xMidYMid meet">
  <g transform="translate(0.000000,80.000000) scale(0.100000,-0.100000)"
    fill="#0968DA" stroke="none">
    <path d="M310 762 c-119 -62 -240 -135 -261 -158 -24 -25 -24 -29 -24 -204 0
-214 -11 -196 173 -300 138 -79 175 -90 219 -67 147 77 265 152 278 177 22 42
21 338 0 380 -11 20 -49 48 -126 92 -62 35 -126 71 -143 81 -39 22 -73 22
-116 -1z m148 -135 c37 -10 44 -18 37 -46 -9 -38 -15 -41 -66 -29 -56 13 -95
5 -109 -22 -17 -32 3 -54 79 -84 90 -35 131 -79 131 -139 0 -57 -29 -102 -77
-118 -79 -28 -252 -7 -239 28 4 8 9 25 12 38 5 21 7 22 42 9 45 -16 116 -18
143 -4 12 7 19 21 19 41 0 27 -6 33 -57 55 -134 58 -153 77 -153 149 0 65 26
96 110 128 17 7 92 3 128 -6z"/>
  </g>
</svg>
